{
	"asset": {
		"generator": "Blocks 2.0.1_SVR_RC5",
		"version": "1.1",
		"copyright": "Unknown"
	},
	"buffers": {
		"model": {
			"byteLength": 60712,
			"type": "arraybuffer",
			"uri": "model.bin"
		}
	},
	"accessors": {
		"accessor_position_m0-PolyPaper7_-108468": {
			"bufferView": "vec3BufferView",
			"byteOffset": 0,
			"byteStride": 12,
			"componentType": 5126,
			"count": 1420,
			"max": [ -0.4575934, 1.113295, 0.3220249 ],
			"min": [ -0.8799691, 0.5367449, -0.1194043 ],
			"type": "VEC3"
		 },
		"accessor_normal_m0-PolyPaper7_-108468": {
			"bufferView": "vec3BufferView",
			"byteOffset": 17040,
			"byteStride": 12,
			"componentType": 5126,
			"count": 1420,
			"max": [ 0.9995771, 0.9983929, 0.9713654 ],
			"min": [ -0.9982141, -0.9983935, -0.9713653 ],
			"type": "VEC3"
		 },
		"accessor_color_m0-PolyPaper7_-108468": {
			"bufferView": "vec4BufferView",
			"byteOffset": 0,
			"byteStride": 16,
			"componentType": 5126,
			"count": 1420,
			"max": [ 0.9411765, 0.3843137, 0.572549, 1 ],
			"min": [ 0.9411765, 0.3843137, 0.572549, 1 ],
			"type": "VEC4"
		 },
		"accessor_indices_0_m0-PolyPaper7_-108468": {
			"bufferView": "ushortBufferView",
			"byteOffset": 0,
			"byteStride": 0,
			"componentType": 5123,
			"count": 1956,
			"max": [ 1419 ],
			"min": [ 0 ],
			"type": "SCALAR"
		 }
	},
	"bufferViews": {
		"ushortBufferView": {
			"buffer": "model",
			"byteLength": 3912,
			"byteOffset": 0,
			"target": 34963
		},
		"vec3BufferView": {
			"buffer": "model",
			"byteLength": 34080,
			"byteOffset": 3912,
			"target": 34962
		},
		"vec4BufferView": {
			"buffer": "model",
			"byteLength": 22720,
			"byteOffset": 37992,
			"target": 34962
		}
	},
	"meshes": {
		"mesh_m0-PolyPaper7_-108468": {
			"name": "mesh_m0-PolyPaper7_-108468",
			"primitives": [
				{
					"attributes": {
						"POSITION": "accessor_position_m0-PolyPaper7_-108468",
						"NORMAL": "accessor_normal_m0-PolyPaper7_-108468",
						"COLOR": "accessor_color_m0-PolyPaper7_-108468"
					},
					"indices": "accessor_indices_0_m0-PolyPaper7_-108468",
					"material": "material_mat7",
					"mode": 4
				}
			]
		}
	},
	"shaders": {
		"vertex_mat7": {
			"type": 35633,
			"uri": "https://vr.google.com/shaders/w/vs.glsl"
		},
		"fragment_mat7": {
			"type": 35632,
			"uri": "https://vr.google.com/shaders/w/fs.glsl"
		}
	},
	"programs": {
		"program_mat7": {
			"attributes": [
				"a_position",
				"a_normal",
				"a_color"				
			],
			"vertexShader": "vertex_mat7",
			"fragmentShader": "fragment_mat7"
		}
	},
	"techniques": {
		"technique_mat7": {
			"program": "program_mat7",
			"extras": {"gvrss" : "https://vr.google.com/shaders/w/gvrss/paper.json"},
			"parameters": {
				"position": {
					"type": 35665,
					"semantic": "POSITION"
				},
				"normal": {
					"type": 35665,
					"semantic": "NORMAL"
				},
				"color": {
					"type": 35666,
					"semantic": "COLOR"
				},
				"modelViewMatrix": {
					"type": 35676,
					"semantic": "MODELVIEW"
				},
				"projectionMatrix": {
					"type": 35676,
					"semantic": "PROJECTION"
				},
				"normalMatrix": {
					"type": 35675,
					"semantic": "MODELVIEWINVERSETRANSPOSE"
				},
				"color": {
					"type": 35666
				},
				"roughness": {
					"type": 5126
				},
				"metallic": {
					"type": 5126
				},
				"light0Pos": {
					"type": 35666
				},
				"light0Color": {
					"type": 35666
				},
				"light1Pos": {
					"type": 35666
				},
				"light1Color": {
					"type": 35666
				}				
			},
			"attributes": {
				"a_position": "position",
				"a_normal": "normal",
				"a_color": "color"				
			},
			"uniforms": {
				"u_modelViewMatrix": "modelViewMatrix",
				"u_projectionMatrix": "projectionMatrix",
				"u_normalMatrix": "normalMatrix",
				"u_color": "color",
				"u_roughness": "roughness",
				"u_metallic": "metallic",
				"u_light0Pos": "light0Pos",
				"u_light0Color": "light0Color",
				"u_light1Pos": "light1Pos",
				"u_light1Color": "light1Color"				
			},
			"states": {
				"enable": [
					2929,
					2884
				],
				"functions": {
					"cullFace": [1029]
				}
			}
		}
	},
	"materials": {
		"material_mat7": {
			"technique": "technique_mat7",
			"values": {
				"color": [0.9411765, 0.3843137, 0.572549, 1],
				"roughness": 0.72,
				"metallic": 0,
				"light0Pos": [-0.02, 4.11, -0.54, 0],
				"light0Color": [0.8, 0.8, 0.8, 0],
				"light1Pos": [0.02, -4.11, 0.54, 0],
				"light1Color": [0.64, 0.64, 0.64, 0]				
			},
			"name": "material_mat7"
		}
	},
	"nodes": {
		"node_MeshObject2014061440-PolyPaper7": {
			"name": "node_MeshObject2014061440-PolyPaper7",
			"meshes": [
				"mesh_m0-PolyPaper7_-108468"
			],
			"matrix": [1, 0, 0, 0, 0, 1, 0, 0, 0, 0, 1, 0, 0, 0, 0, 1]
		}
	},
	"scene": "defaultScene",
	"scenes": {
		"defaultScene": {
			"nodes": [
				"node_MeshObject2014061440-PolyPaper7"
			],
			"extras": {

			}
		}
	}
}