{
	"asset": {
		"generator": "Tilt Brush 15.1.2ce7e7c",
		"version": "1.1",
		"copyright": "Unknown."
	},
	"buffers": {
		"sketch": {
			"byteLength": 1108008,
			"type": "arraybuffer",
			"uri": "sketch.bin"
		}
	},
	"accessors": {
		"accessor_position_Paper_759f1ebd-20cd-4720-8d41-234e0da63716_0_0": {
			"bufferView": "vec3BufferView",
			"byteOffset": 0,
			"byteStride": 12,
			"componentType": 5126,
			"count": 16788,
			"max": [ 0.4790169, 1.304636, 0.1504381 ],
			"min": [ 0.1561001, 0.9427635, -0.1860875 ],
			"type": "VEC3"
		 },
		"accessor_normal_Paper_759f1ebd-20cd-4720-8d41-234e0da63716_0_0": {
			"bufferView": "vec3BufferView",
			"byteOffset": 201456,
			"byteStride": 12,
			"componentType": 5126,
			"count": 16788,
			"max": [ 0.9995556, 0.9999897, 0.9994041 ],
			"min": [ -0.9995556, -0.9999897, -0.9994041 ],
			"type": "VEC3"
		 },
		"accessor_color_Paper_759f1ebd-20cd-4720-8d41-234e0da63716_0_0": {
			"bufferView": "vec4BufferView",
			"byteOffset": 0,
			"byteStride": 16,
			"componentType": 5126,
			"count": 16788,
			"max": [ 1, 0.8705882, 0.7843137, 1 ],
			"min": [ 0.4862745, 0.2745098, 0.4039216, 0 ],
			"type": "VEC4"
		 },
		"accessor_tangent_Paper_759f1ebd-20cd-4720-8d41-234e0da63716_0_0": {
			"bufferView": "vec4BufferView",
			"byteOffset": 268608,
			"byteStride": 16,
			"componentType": 5126,
			"count": 16788,
			"max": [ 0.9997525, 0.9999918, 0.9988608, 1 ],
			"min": [ -0.9884666, -0.9999906, -0.9980038, -1 ],
			"type": "VEC4"
		 },
		"accessor_uv0_Paper_759f1ebd-20cd-4720-8d41-234e0da63716_0_0": {
			"bufferView": "vec2BufferView",
			"byteOffset": 0,
			"byteStride": 8,
			"componentType": 5126,
			"count": 16788,
			"max": [ 9.511297, 1 ],
			"min": [ 0.001659807, 0 ],
			"type": "VEC2"
		 },
		"accessor_indices_0_Paper_759f1ebd-20cd-4720-8d41-234e0da63716_0_0": {
			"bufferView": "ushortBufferView",
			"byteOffset": 0,
			"byteStride": 0,
			"componentType": 5123,
			"count": 16788,
			"max": [ 16787 ],
			"min": [ 0 ],
			"type": "SCALAR"
		 }
	},
	"bufferViews": {
		"ushortBufferView": {
			"buffer": "sketch",
			"byteLength": 33576,
			"byteOffset": 0,
			"target": 34963
		},
		"vec2BufferView": {
			"buffer": "sketch",
			"byteLength": 134304,
			"byteOffset": 33576,
			"target": 34962
		},
		"vec3BufferView": {
			"buffer": "sketch",
			"byteLength": 402912,
			"byteOffset": 167880,
			"target": 34962
		},
		"vec4BufferView": {
			"buffer": "sketch",
			"byteLength": 537216,
			"byteOffset": 570792,
			"target": 34962
		}
	},
	"meshes": {
		"mesh_Paper_759f1ebd-20cd-4720-8d41-234e0da63716_0_0": {
			"name": "mesh_Paper_759f1ebd-20cd-4720-8d41-234e0da63716_0_0",
			"primitives": [
				{
					"attributes": {
						"POSITION": "accessor_position_Paper_759f1ebd-20cd-4720-8d41-234e0da63716_0_0",
						"NORMAL": "accessor_normal_Paper_759f1ebd-20cd-4720-8d41-234e0da63716_0_0",
						"COLOR": "accessor_color_Paper_759f1ebd-20cd-4720-8d41-234e0da63716_0_0",
						"TANGENT": "accessor_tangent_Paper_759f1ebd-20cd-4720-8d41-234e0da63716_0_0",
						"TEXCOORD_0": "accessor_uv0_Paper_759f1ebd-20cd-4720-8d41-234e0da63716_0_0"
					},
					"indices": "accessor_indices_0_Paper_759f1ebd-20cd-4720-8d41-234e0da63716_0_0",
					"material": "material_759f1ebd-20cd-4720-8d41-234e0da63716",
					"mode": 4
				}
			]
		}
	},
	"shaders": {
		"vertex_759f1ebd-20cd-4720-8d41-234e0da63716": {
			"type": 35633,
			"uri": "https://www.tiltbrush.com/shaders/brushes/Paper-759f1ebd-20cd-4720-8d41-234e0da63716/Paper-759f1ebd-20cd-4720-8d41-234e0da63716-v10.0-vertex.glsl"
		},
		"fragment_759f1ebd-20cd-4720-8d41-234e0da63716": {
			"type": 35632,
			"uri": "https://www.tiltbrush.com/shaders/brushes/Paper-759f1ebd-20cd-4720-8d41-234e0da63716/Paper-759f1ebd-20cd-4720-8d41-234e0da63716-v10.0-fragment.glsl"
		}
	},
	"programs": {
		"program_759f1ebd-20cd-4720-8d41-234e0da63716": {
			"attributes": [
				"a_position",
				"a_normal",
				"a_color",
				"a_tangent",
				"a_texcoord0"				
			],
			"vertexShader": "vertex_759f1ebd-20cd-4720-8d41-234e0da63716",
			"fragmentShader": "fragment_759f1ebd-20cd-4720-8d41-234e0da63716"
		}
	},
	"techniques": {
		"technique_759f1ebd-20cd-4720-8d41-234e0da63716": {
			"program": "program_759f1ebd-20cd-4720-8d41-234e0da63716",
			"parameters": {
				"position": {
					"type": 35665,
					"semantic": "POSITION"
				},
				"normal": {
					"type": 35665,
					"semantic": "NORMAL"
				},
				"color": {
					"type": 35666,
					"semantic": "COLOR"
				},
				"tangent": {
					"type": 35666,
					"semantic": "TANGENT"
				},
				"texcoord0": {
					"type": 35664,
					"semantic": "TEXCOORD_0"
				},
				"modelViewMatrix": {
					"type": 35676,
					"semantic": "MODELVIEW"
				},
				"projectionMatrix": {
					"type": 35676,
					"semantic": "PROJECTION"
				},
				"normalMatrix": {
					"type": 35675,
					"semantic": "MODELVIEWINVERSETRANSPOSE"
				},
				"SceneLight_0_matrix": {
					"type": 35676,
					"semantic": "MODELVIEW",
					"node": "node_SceneLight_0_-922"
				},
				"SceneLight_0_color": {
					"type": 35666,
					"node": "node_SceneLight_0_-922"
				},
				"SceneLight_1_matrix": {
					"type": 35676,
					"semantic": "MODELVIEW",
					"node": "node_SceneLight_1_-928"
				},
				"SceneLight_1_color": {
					"type": 35666,
					"node": "node_SceneLight_1_-928"
				},
				"ambient_light_color": {
					"type": 35666
				},
				"Shininess": {
					"type": 5126
				},
				"Cutoff": {
					"type": 5126
				},
				"Color": {
					"type": 35666
				},
				"SpecColor": {
					"type": 35666
				},
				"MainTex_TexelSize": {
					"type": 35666
				},
				"BumpMap_TexelSize": {
					"type": 35666
				},
				"MainTex": {
					"type": 35678
				},
				"BumpMap": {
					"type": 35678
				}				
			},
			"attributes": {
				"a_position": "position",
				"a_normal": "normal",
				"a_color": "color",
				"a_tangent": "tangent",
				"a_texcoord0": "texcoord0"				
			},
			"uniforms": {
				"u_modelViewMatrix": "modelViewMatrix",
				"u_projectionMatrix": "projectionMatrix",
				"u_normalMatrix": "normalMatrix",
				"u_SceneLight_0_matrix": "SceneLight_0_matrix",
				"u_SceneLight_0_color": "SceneLight_0_color",
				"u_SceneLight_1_matrix": "SceneLight_1_matrix",
				"u_SceneLight_1_color": "SceneLight_1_color",
				"u_ambient_light_color": "ambient_light_color",
				"u_Shininess": "Shininess",
				"u_Cutoff": "Cutoff",
				"u_Color": "Color",
				"u_SpecColor": "SpecColor",
				"u_MainTex_TexelSize": "MainTex_TexelSize",
				"u_BumpMap_TexelSize": "BumpMap_TexelSize",
				"u_MainTex": "MainTex",
				"u_BumpMap": "BumpMap"				
			},
			"states": {
				"enable": [
					2929,
					2884
				],
				"functions": {
					"depthMask": [true]
				}
			}
		}
	},
	"samplers": {
		"sampler_LINEAR_LINEAR_REPEAT": {
			"magFilter": 9729,
			"minFilter": 9987,
			"wrapS": 10497,
			"wrapT": 10497
		}
	},
	"textures": {
		"texture_759f1ebd-20cd-4720-8d41-234e0da63716_MainTex": {
			"format": 6408,
			"internalFormat": 6408,
			"sampler": "sampler_LINEAR_LINEAR_REPEAT",
			"source": "image_759f1ebd-20cd-4720-8d41-234e0da63716_MainTex",
			"target": 3553,
			"type": 5121
		},
		"texture_759f1ebd-20cd-4720-8d41-234e0da63716_BumpMap": {
			"format": 6408,
			"internalFormat": 6408,
			"sampler": "sampler_LINEAR_LINEAR_REPEAT",
			"source": "image_759f1ebd-20cd-4720-8d41-234e0da63716_BumpMap",
			"target": 3553,
			"type": 5121
		}
	},
	"images": {
		"image_759f1ebd-20cd-4720-8d41-234e0da63716_MainTex": {
			"uri": "https://www.tiltbrush.com/shaders/brushes/Paper-759f1ebd-20cd-4720-8d41-234e0da63716/Paper-759f1ebd-20cd-4720-8d41-234e0da63716-v10.0-MainTex.png"
		},
		"image_759f1ebd-20cd-4720-8d41-234e0da63716_BumpMap": {
			"uri": "https://www.tiltbrush.com/shaders/brushes/Paper-759f1ebd-20cd-4720-8d41-234e0da63716/Paper-759f1ebd-20cd-4720-8d41-234e0da63716-v10.0-BumpMap.png"
		}
	},
	"materials": {
		"material_759f1ebd-20cd-4720-8d41-234e0da63716": {
			"technique": "technique_759f1ebd-20cd-4720-8d41-234e0da63716",
			"values": {
				"SceneLight_0_color": [1.553333, 1.406667, 1.773333, 1],
				"SceneLight_1_color": [0.2712157, 0.2667451, 0.2190588, 1],
				"ambient_light_color": [0.2039216, 0.2941177, 0.3686275, 1],
				"Shininess": 0.145,
				"Cutoff": 0.16,
				"Color": [1, 1, 1, 1],
				"SpecColor": [0.1411765, 0.1411765, 0.1411765, 1],
				"MainTex_TexelSize": [0.0009765625, 0.0078125, 1024, 128],
				"BumpMap_TexelSize": [0.0009765625, 0.0078125, 1024, 128],
				"MainTex": "texture_759f1ebd-20cd-4720-8d41-234e0da63716_MainTex",
				"BumpMap": "texture_759f1ebd-20cd-4720-8d41-234e0da63716_BumpMap"				
			},
			"name": "material_759f1ebd-20cd-4720-8d41-234e0da63716"
		}
	},
	"nodes": {
		"node_Paper_759f1ebd-20cd-4720-8d41-234e0da63716_0_0": {
			"name": "node_Paper_759f1ebd-20cd-4720-8d41-234e0da63716_0_0",
			"meshes": [
				"mesh_Paper_759f1ebd-20cd-4720-8d41-234e0da63716_0_0"
			],
			"matrix": [1, 0, 0, 0, 0, 1, 0, 0, 0, 0, 1, 0, 0, 0, 0, 1]
		},
		"node_SceneLight_0_-922": {
			"name": "node_SceneLight_0_-922",
			"light": "SceneLight_0",
			"matrix": [0.898794, 0.2191856, -0.3796406, 0, -0.4383712, 0.449397, -0.7783785, 0, -1.490116E-08, 0.8660254, 0.4999999, 0, 0, 0.07816665, 0.0220875, 1]
		},
		"node_SceneLight_1_-928": {
			"name": "node_SceneLight_1_-928",
			"light": "SceneLight_1",
			"matrix": [0.7660444, -0.4924039, -0.4131759, 0, -0.6427876, -0.5868242, -0.4924039, 0, 8.940697E-08, 0.6427876, -0.7660446, 0, 5.811453E-09, 0.0636562, -0.0602054, 1]
		}
	},
	"scene": "defaultScene",
	"scenes": {
		"defaultScene": {
			"nodes": [
				"node_Paper_759f1ebd-20cd-4720-8d41-234e0da63716_0_0",
				"node_SceneLight_0_-922",
				"node_SceneLight_1_-928"
			],
			"extras": {
				"TB_EnvironmentGuid": "0ca88298-e5e8-4e94-aad8-4b4f6c80ae52",
				"TB_Environment": "Blue",
				"TB_SkyColorA": "0.1803922, 0.2352941, 0.4117647",
				"TB_SkyColorB": "0.3568628, 0.3921569, 0.6",
				"TB_SkyGradientDirection": "0, 1, 0",
				"TB_FogColor": "0.6313726, 0.7137255, 0.8941177",
				"TB_FogDensity": "0.005",
				"TB_SkyColorHorizon": "0.1803922, 0.2352941, 0.4117647",
				"TB_SkyColorZenith": "0.3568628, 0.3921569, 0.6"
			}
		}
	}
}